<mxfile host="app.diagrams.net" modified="2023-06-03T05:22:56.863Z" agent="Mozilla/5.0 (Windows NT 10.0; Win64; x64) AppleWebKit/537.36 (KHTML, like Gecko) Chrome/114.0.0.0 Safari/537.36" version="21.3.3" etag="6NHr6wl-c0a3_AwBWUu0" type="github">
  <diagram name="Page-1" id="6iUVWesJ1pDUdCqgVRU2">
    <mxGraphModel>
      <root>
        <mxCell id="0" />
        <mxCell id="1" parent="0" />
      </root>
    </mxGraphModel>
  </diagram>
</mxfile>
